<svg xmlns="http://www.w3.org/2000/svg"
    xmlns:xlink="http://www.w3.org/1999/xlink" width="0.529cm" height="0.706cm">
    <path fill-rule="evenodd" fill="rgb(163, 163, 163)" d="M10.000,-0.000 L9.871,-0.000 L9.613,0.008 L9.484,0.015 L9.359,0.019 L9.230,0.031 L9.105,0.039 L8.980,0.054 L8.851,0.062 L8.727,0.078 L8.602,0.098 L8.480,0.117 L8.355,0.132 L8.230,0.156 L8.109,0.179 L7.984,0.203 L7.863,0.226 L7.742,0.257 L7.500,0.312 L7.266,0.382 L7.145,0.414 L6.910,0.484 L6.797,0.523 L6.676,0.566 L6.562,0.609 L6.449,0.648 L6.222,0.742 L6.109,0.785 L5.996,0.836 L5.886,0.882 L5.777,0.937 L5.668,0.984 L5.449,1.093 L5.343,1.148 L5.234,1.207 L5.129,1.265 L5.023,1.328 L4.922,1.386 L4.816,1.449 L4.715,1.511 L4.609,1.578 L4.512,1.640 L4.410,1.710 L4.312,1.777 L4.211,1.843 L4.117,1.914 L4.015,1.988 L3.922,2.062 L3.828,2.133 L3.734,2.211 L3.547,2.359 L3.457,2.437 L3.277,2.601 L3.187,2.679 L3.102,2.766 L3.015,2.844 L2.844,3.015 L2.765,3.101 L2.680,3.187 L2.601,3.277 L2.437,3.457 L2.359,3.547 L2.211,3.734 L2.133,3.828 L2.062,3.922 L1.988,4.015 L1.914,4.117 L1.844,4.211 L1.777,4.312 L1.711,4.410 L1.640,4.511 L1.578,4.609 L1.512,4.714 L1.449,4.816 L1.387,4.922 L1.328,5.023 L1.265,5.129 L1.207,5.234 L1.148,5.343 L1.039,5.554 L0.984,5.664 L0.937,5.773 L0.883,5.887 L0.836,5.996 L0.785,6.109 L0.742,6.223 L0.648,6.449 L0.609,6.562 L0.523,6.797 L0.484,6.910 L0.414,7.144 L0.383,7.265 L0.312,7.500 L0.258,7.742 L0.227,7.863 L0.203,7.984 L0.179,8.109 L0.156,8.230 L0.133,8.355 L0.117,8.480 L0.098,8.601 L0.078,8.726 L0.062,8.851 L0.055,8.980 L0.039,9.105 L0.031,9.230 L0.019,9.359 L0.015,9.484 L0.007,9.613 L-0.000,9.871 L-0.000,10.129 L0.007,10.386 L0.015,10.515 L0.019,10.640 L0.031,10.769 L0.039,10.894 L0.055,11.019 L0.062,11.148 L0.078,11.273 L0.098,11.398 L0.117,11.519 L0.133,11.644 L0.156,11.769 L0.179,11.891 L0.203,12.016 L0.227,12.136 L0.258,12.257 L0.312,12.499 L0.383,12.734 L0.414,12.855 L0.484,13.090 L0.523,13.203 L0.566,13.324 L0.609,13.437 L0.648,13.551 L0.742,13.777 L0.785,13.890 L0.836,14.004 L0.883,14.113 L0.937,14.222 L0.984,14.332 L1.094,14.550 L1.148,14.656 L1.207,14.766 L1.265,14.871 L1.328,14.976 L1.387,15.078 L1.449,15.183 L1.512,15.285 L1.578,15.390 L1.640,15.488 L1.711,15.590 L1.844,15.785 L1.914,15.886 L1.988,15.984 L2.062,16.078 L2.133,16.172 L2.211,16.265 L2.359,16.453 L2.437,16.543 L2.601,16.722 L2.680,16.812 L2.765,16.898 L2.844,16.984 L3.015,17.156 L3.102,17.234 L3.187,17.320 L3.277,17.402 L3.367,17.480 L3.457,17.562 L3.547,17.641 L3.640,17.715 L3.734,17.792 L3.828,17.863 L4.015,18.012 L4.117,18.082 L4.211,18.156 L4.312,18.222 L4.410,18.293 L4.512,18.359 L4.609,18.422 L4.715,18.488 L4.816,18.550 L4.922,18.613 L5.023,18.672 L5.129,18.734 L5.234,18.793 L5.343,18.848 L5.449,18.906 L5.668,19.015 L5.777,19.062 L5.886,19.113 L5.996,19.168 L6.336,19.308 L6.449,19.347 L6.676,19.433 L6.797,19.472 L6.910,19.515 L7.145,19.585 L7.266,19.621 L7.383,19.652 L7.500,19.687 L7.621,19.714 L7.742,19.746 L7.863,19.769 L7.984,19.797 L8.109,19.820 L8.230,19.843 L8.355,19.863 L8.480,19.886 L8.602,19.902 L8.727,19.922 L8.851,19.937 L8.980,19.949 L9.105,19.960 L9.230,19.968 L9.359,19.980 L9.484,19.984 L9.613,19.992 L9.871,20.000 L10.152,20.000 L10.301,19.996 L10.453,19.988 L10.602,19.984 L10.750,19.972 L10.902,19.960 L11.047,19.945 L11.195,19.930 L11.344,19.910 L11.488,19.890 L11.637,19.867 L11.777,19.843 L11.922,19.812 L12.062,19.785 L12.207,19.754 L12.348,19.722 L12.629,19.652 L12.770,19.609 L12.906,19.570 L13.047,19.527 L13.184,19.484 L13.316,19.437 L13.590,19.336 L13.719,19.281 L13.855,19.230 L14.113,19.113 L14.246,19.058 L14.375,18.996 L14.500,18.933 L14.348,18.855 L14.199,18.769 L14.047,18.687 L13.902,18.601 L13.754,18.515 L13.609,18.422 L13.328,18.234 L13.187,18.137 L12.914,17.933 L12.648,17.722 L12.519,17.613 L12.390,17.500 L12.265,17.390 L12.015,17.156 L11.781,16.914 L11.660,16.793 L11.547,16.668 L11.219,16.281 L11.113,16.144 L11.012,16.011 L10.906,15.875 L10.812,15.734 L10.715,15.594 L10.527,15.312 L10.437,15.164 L10.347,15.019 L10.265,14.871 L10.184,14.718 L10.105,14.566 L10.027,14.417 L9.879,14.105 L9.812,13.949 L9.679,13.629 L9.648,13.547 L9.621,13.468 L9.590,13.386 L9.562,13.305 L9.531,13.222 L9.476,13.058 L9.453,12.977 L9.426,12.890 L9.402,12.808 L9.375,12.727 L9.355,12.640 L9.328,12.558 L9.309,12.473 L9.285,12.390 L9.265,12.300 L9.246,12.219 L9.230,12.133 L9.211,12.046 L9.191,11.957 L9.176,11.875 L9.156,11.785 L9.144,11.699 L9.129,11.609 L9.113,11.523 L9.105,11.437 L9.090,11.347 L9.078,11.262 L9.066,11.172 L9.058,11.082 L9.047,10.992 L9.039,10.906 L9.031,10.812 L9.027,10.722 L9.020,10.636 L9.016,10.547 L9.012,10.453 L9.000,10.183 L9.000,9.816 L9.012,9.547 L9.016,9.453 L9.020,9.363 L9.027,9.277 L9.031,9.187 L9.039,9.094 L9.047,9.008 L9.058,8.918 L9.066,8.828 L9.078,8.738 L9.090,8.652 L9.105,8.562 L9.113,8.476 L9.129,8.391 L9.144,8.300 L9.156,8.214 L9.176,8.125 L9.191,8.043 L9.211,7.953 L9.230,7.867 L9.246,7.781 L9.285,7.609 L9.309,7.527 L9.328,7.445 L9.355,7.359 L9.375,7.273 L9.402,7.191 L9.426,7.109 L9.453,7.023 L9.476,6.941 L9.531,6.777 L9.562,6.695 L9.590,6.613 L9.621,6.531 L9.648,6.453 L9.679,6.367 L9.812,6.054 L9.879,5.894 L9.953,5.738 L10.027,5.586 L10.105,5.429 L10.184,5.281 L10.265,5.133 L10.347,4.980 L10.437,4.835 L10.527,4.687 L10.715,4.406 L10.812,4.265 L10.906,4.125 L11.012,3.988 L11.113,3.852 L11.219,3.719 L11.437,3.461 L11.547,3.336 L11.660,3.207 L11.781,3.086 L11.898,2.961 L12.015,2.844 L12.265,2.609 L12.390,2.500 L12.519,2.387 L12.648,2.277 L12.914,2.066 L13.187,1.863 L13.328,1.765 L13.609,1.578 L13.754,1.484 L13.902,1.398 L14.047,1.312 L14.199,1.226 L14.348,1.148 L14.500,1.070 L14.375,1.007 L14.246,0.945 L14.113,0.882 L13.855,0.773 L13.719,0.719 L13.590,0.664 L13.316,0.562 L13.184,0.515 L13.047,0.473 L12.906,0.429 L12.770,0.390 L12.488,0.312 L12.207,0.242 L12.062,0.215 L11.922,0.187 L11.777,0.156 L11.637,0.132 L11.488,0.109 L11.344,0.090 L11.195,0.070 L11.047,0.054 L10.902,0.039 L10.750,0.027 L10.602,0.015 L10.453,0.008 L10.301,0.004 L10.152,-0.000 L10.000,-0.000 Z"/>
</svg>