<svg xmlns="http://www.w3.org/2000/svg"
    xmlns:xlink="http://www.w3.org/1999/xlink" width="0.847cm" height="0.847cm">
    <path fill-rule="evenodd" fill="rgb(163, 163, 163)" d="M21.000,13.000 L21.000,11.000 L24.000,11.000 L24.000,13.000 L21.000,13.000 ZM17.656,4.929 L19.777,2.808 L21.191,4.222 L19.070,6.343 L17.656,4.929 ZM12.000,19.000 C8.134,19.000 5.000,15.866 5.000,12.000 C5.000,8.134 8.134,5.000 12.000,5.000 C15.866,5.000 19.000,8.134 19.000,12.000 C19.000,15.866 15.866,19.000 12.000,19.000 ZM11.000,-0.000 L13.000,-0.000 L13.000,3.000 L11.000,3.000 L11.000,-0.000 ZM2.808,4.222 L4.222,2.808 L6.344,4.929 L4.929,6.343 L2.808,4.222 ZM3.000,13.000 L-0.000,13.000 L-0.000,11.000 L3.000,11.000 L3.000,13.000 ZM6.344,19.070 L4.222,21.191 L2.808,19.777 L4.929,17.656 L6.344,19.070 ZM13.000,24.000 L11.000,24.000 L11.000,21.000 L13.000,21.000 L13.000,24.000 ZM21.191,19.777 L19.777,21.191 L17.656,19.070 L19.070,17.656 L21.191,19.777 Z"/>
</svg>